<svg id="Ebene_1" data-name="Ebene 1" xmlns="http://www.w3.org/2000/svg" viewBox="0 0 1920 1080"><defs><style>.cls-1{fill:#0f0f0f;}.cls-2{fill:#48483c;}.cls-3{fill:#2c2c2a;}.cls-4{fill:#afca30;}.cls-5{font-size:291.67px;font-family:GothamBlack, Gotham Black;}.cls-5,.cls-6{fill:#fff;}.cls-6{font-size:51.02px;font-family:GothamHTF-Book, Gotham HTF;letter-spacing:0.64em;}</style></defs><title>Zeichenfläche 1 Kopie 2</title><rect class="cls-1" width="1920" height="1080"/><circle class="cls-2" cx="432.87" cy="528.89" r="37.1"/><ellipse class="cls-3" cx="432.87" cy="569.39" rx="128.24" ry="40.5"/><path class="cls-2" d="M1920,931.84v153.67H0V832.83L48.8,763a18,18,0,0,1,28-1.86L112.42,800,271,972.8l119.55-196L490.13,613.6a18,18,0,0,1,28.62-2.75l34.94,38.31L827,948.89,942.11,826.15l38-40.48a18,18,0,0,1,26-.18l44,45.63,101.28,105,33.5-44.51,150.37-199.8a18,18,0,0,1,27.86-1.05l59,67.16L1577.59,935l140.9-167.38,25.15-29.88a18,18,0,0,1,28,.64l19,24.83Z"/><polygon class="cls-4" points="602.47 822.85 405.67 844.22 384.98 569.39 480.75 569.39 602.47 822.85"/><text class="cls-5" transform="translate(633.77 550.84)">UFO</text><ellipse class="cls-4" cx="432.87" cy="569.39" rx="47.88" ry="15.12"/><path class="cls-3" d="M1920,609.62v475.89H0V960.85L112.42,800,239.56,618a18,18,0,0,1,29-.63l122,159.37L419,813.89,553.69,649.16,681.94,492.31a18,18,0,0,1,28.65,1.12L942.11,826.15l47.69,68.54,60.33-63.57,28.47-30a18,18,0,0,1,26.48.45l79.83,90,106.66,120.3,130.53-254,105.25-204.78a18,18,0,0,1,30.42-2.48l160.72,217,32.06,43.28,40.14-47.69Z"/><text class="cls-6" transform="translate(669.59 622.96)">SIGHTINGS</text></svg>