<svg id="Ebene_1" data-name="Ebene 1" xmlns="http://www.w3.org/2000/svg" viewBox="0 0 1920 1080"><defs><style>.cls-1{fill:#0f0f0f;}.cls-2{fill:#48483c;}.cls-3{fill:#2c2c2a;}.cls-4{fill:#709e22;}.cls-5{fill:#fff;}.cls-6{fill:#afca30;}</style></defs><title>Zeichenfläche 1 Kopie 3</title><rect class="cls-1" width="1920" height="1080"/><circle class="cls-2" cx="432.87" cy="528.89" r="37.1"/><ellipse class="cls-3" cx="432.87" cy="569.39" rx="128.24" ry="40.5"/><path class="cls-2" d="M1920,931.84v153.67H0V832.83L48.8,763a18,18,0,0,1,28-1.86L112.42,800,271,972.8l119.55-196L490.13,613.6a18,18,0,0,1,28.62-2.75l34.94,38.31L827,948.89,942.11,826.15l38-40.48a18,18,0,0,1,26-.18l44,45.63,101.28,105,33.5-44.51,150.37-199.8a18,18,0,0,1,27.86-1.05l59,67.16L1577.59,935l140.9-167.38,25.15-29.88a18,18,0,0,1,28,.64l19,24.83Z"/><polygon class="cls-4" points="602.47 822.85 405.67 844.22 384.98 569.39 480.75 569.39 602.47 822.85"/><path class="cls-5" d="M743.73,554.63q-21.88,0-39.37-5.54A76.26,76.26,0,0,1,674.61,532q-12.25-11.52-18.81-29.17t-6.56-41.56V346.67H707V460.13q0,22.17,10.13,32.81t27.21,10.65q17.08,0,27.2-10.21t10.13-31.79V346.67H839.4V459.84q0,24.79-6.85,42.73T813.29,532a77.48,77.48,0,0,1-30,17.06Q765.6,554.63,743.73,554.63Z"/><path class="cls-5" d="M872.94,346.67h163.33v49.58H929.52v34.42h96.54v47.25H929.52v72.92H872.94Z"/><path class="cls-5" d="M1164.6,554.92a113.48,113.48,0,0,1-43.75-8.31,107.68,107.68,0,0,1-34.71-22.6,104.33,104.33,0,0,1-22.9-33.54,102.63,102.63,0,0,1-8.31-41.12v-.58a104.06,104.06,0,0,1,31.5-75.1,110,110,0,0,1,35-22.75,119.29,119.29,0,0,1,87.5,0,107.82,107.82,0,0,1,34.71,22.6,104.44,104.44,0,0,1,22.9,33.54,102.62,102.62,0,0,1,8.31,41.13v.58a104.06,104.06,0,0,1-31.5,75.1,109.93,109.93,0,0,1-35,22.75A113.48,113.48,0,0,1,1164.6,554.92Zm.44-51a51.13,51.13,0,0,0,21.35-4.37,49.12,49.12,0,0,0,16.38-11.81,54.84,54.84,0,0,0,10.53-17.35,58.15,58.15,0,0,0,3.81-21v-.58a58.18,58.18,0,0,0-3.81-21,54,54,0,0,0-10.82-17.5,53.3,53.3,0,0,0-16.67-12.1,53.12,53.12,0,0,0-42.56-.15,50.85,50.85,0,0,0-26.91,29.17,60.21,60.21,0,0,0-3.66,21v.58a58.16,58.16,0,0,0,3.8,21,55.17,55.17,0,0,0,10.68,17.5,51.41,51.41,0,0,0,16.53,12.1A49.65,49.65,0,0,0,1165,503.88Z"/><ellipse class="cls-6" cx="432.87" cy="569.39" rx="47.88" ry="15.12"/><path class="cls-3" d="M1920,604.11V1080H0V955.34L112.42,794.47,239.56,612.54a18,18,0,0,1,29-.63l122,159.37L419,808.38,553.69,643.65,681.94,486.8a18,18,0,0,1,28.65,1.12L942.11,820.64l47.69,68.54,60.33-63.57,28.47-30a18,18,0,0,1,26.48.45l79.83,90,106.66,120.3,130.53-254,105.25-204.78a18,18,0,0,1,30.42-2.48l160.72,217,32.06,43.28,40.14-47.69Z"/><path class="cls-5" d="M677.75,596.17a5,5,0,0,0,2,4.23q2,1.53,7.68,2.75,6.07,1.33,8.85,3.7a8,8,0,0,1,2.78,6.45,9,9,0,0,1-3.42,7.37,13.46,13.46,0,0,1-8.77,2.78,21.24,21.24,0,0,1-14.59-5.71l2.5-3a20.59,20.59,0,0,0,5.74,3.83,16.5,16.5,0,0,0,6.5,1.22,9.11,9.11,0,0,0,5.77-1.71,5.35,5.35,0,0,0,2.19-4.41,5,5,0,0,0-1.94-4.18q-1.94-1.53-7.35-2.65-6.33-1.38-9.16-3.7a8.11,8.11,0,0,1-2.83-6.66,8.75,8.75,0,0,1,3.32-7,12.72,12.72,0,0,1,8.42-2.75A19.47,19.47,0,0,1,698,591.12l-2.35,3.11a16,16,0,0,0-10.31-3.88,8.62,8.62,0,0,0-5.51,1.66A5.1,5.1,0,0,0,677.75,596.17Z"/><path class="cls-5" d="M740.29,587.25h4V623h-4Z"/><path class="cls-5" d="M818.35,618.11A20.86,20.86,0,0,1,804,623.57q-8.21,0-13.19-5.25a18.39,18.39,0,0,1-5-13.16,18.61,18.61,0,0,1,5-13.06,16.72,16.72,0,0,1,12.88-5.46,18.9,18.9,0,0,1,13.31,4.74l-2.6,3.06a16.07,16.07,0,0,0-10.87-4.08,12.51,12.51,0,0,0-9.72,4.29A15,15,0,0,0,790,605.05a15.19,15.19,0,0,0,3.85,10.71,13.3,13.3,0,0,0,10.28,4.18,15.83,15.83,0,0,0,10.31-3.57V607.5H803.6v-3.62h14.74Z"/><path class="cls-5" d="M884.72,606.89H864.11V623h-4V587.25h4v15.87h20.61V587.25h4V623h-4Z"/><path class="cls-5" d="M945,591v32h-4.08V591h-12v-3.72H957V591Z"/><path class="cls-5" d="M997.56,587.25h4V623h-4Z"/><path class="cls-5" d="M1071,615.87V587.25h3.93V623h-3.21l-23.06-29.28V623h-3.93V587.25h3.78Z"/><path class="cls-5" d="M1148.56,618.11a20.86,20.86,0,0,1-14.34,5.46q-8.21,0-13.19-5.25a18.39,18.39,0,0,1-5-13.16,18.62,18.62,0,0,1,5-13.06,16.73,16.73,0,0,1,12.88-5.46,18.9,18.9,0,0,1,13.32,4.74l-2.6,3.06a16.06,16.06,0,0,0-10.87-4.08,12.51,12.51,0,0,0-9.72,4.29,15,15,0,0,0-3.85,10.41,15.19,15.19,0,0,0,3.85,10.71,13.3,13.3,0,0,0,10.28,4.18,15.83,15.83,0,0,0,10.31-3.57V607.5h-10.87v-3.62h14.74Z"/><path class="cls-5" d="M1193.41,596.17a5,5,0,0,0,2,4.23q2,1.53,7.68,2.75,6.07,1.33,8.85,3.7a8,8,0,0,1,2.78,6.45,9,9,0,0,1-3.42,7.37,13.45,13.45,0,0,1-8.78,2.78,21.24,21.24,0,0,1-14.59-5.71l2.5-3a20.59,20.59,0,0,0,5.74,3.83,16.5,16.5,0,0,0,6.5,1.22,9.11,9.11,0,0,0,5.76-1.71,5.34,5.34,0,0,0,2.19-4.41,5,5,0,0,0-1.94-4.18q-1.94-1.53-7.35-2.65-6.33-1.38-9.16-3.7a8.12,8.12,0,0,1-2.83-6.66,8.75,8.75,0,0,1,3.32-7,12.73,12.73,0,0,1,8.42-2.75,19.47,19.47,0,0,1,12.55,4.39l-2.35,3.11a16,16,0,0,0-10.3-3.88,8.61,8.61,0,0,0-5.51,1.66A5.1,5.1,0,0,0,1193.41,596.17Z"/></svg>